<svg width="50" height="38" viewBox="0 0 50 38" fill="none" xmlns="http://www.w3.org/2000/svg">
<path opacity="0.6" d="M50.0005 25.0007V30.3577C49.9972 30.5935 49.902 30.8186 49.7353 30.9854C49.5685 31.1521 49.3433 31.2473 49.1075 31.2507H10.7145V36.6077C10.7112 36.8435 10.616 37.0686 10.4493 37.2354C10.2825 37.4021 10.0573 37.4973 9.82154 37.5007C9.57245 37.4902 9.33525 37.3913 9.15254 37.2217L0.252536 28.2927C0.170792 28.213 0.106255 28.1174 0.0629112 28.0118C0.0195677 27.9062 -0.00166105 27.7928 0.000536377 27.6787C-0.00362796 27.5602 0.0164915 27.4421 0.0596571 27.3317C0.102823 27.2213 0.168121 27.1209 0.251536 27.0367L9.18154 18.1077C9.26577 18.0242 9.36618 17.9589 9.47658 17.9158C9.58699 17.8726 9.70506 17.8525 9.82354 17.8567C10.0598 17.8588 10.2858 17.9537 10.4527 18.1209C10.6196 18.2882 10.714 18.5144 10.7155 18.7507V24.1077H49.1075C49.3433 24.111 49.5685 24.2062 49.7353 24.3729C49.902 24.5397 49.9972 24.7649 50.0005 25.0007ZM50.0005 9.82166C50.0047 9.94013 49.9846 10.0582 49.9414 10.1686C49.8983 10.279 49.833 10.3794 49.7495 10.4637L40.8205 19.3927C40.7363 19.4761 40.6359 19.5414 40.5255 19.5845C40.4151 19.6277 40.297 19.6478 40.1785 19.6437C39.9424 19.6416 39.7166 19.5468 39.5498 19.3797C39.3829 19.2127 39.2884 18.9868 39.2865 18.7507V13.3937H0.893536C0.776308 13.3947 0.660103 13.3718 0.552092 13.3262C0.444081 13.2806 0.346556 13.2134 0.265536 13.1287C0.180805 13.0476 0.113576 12.9501 0.067998 12.8421C0.0224202 12.7341 -0.000539318 12.6179 0.000536377 12.5007V7.14366C-0.000539318 7.02643 0.0224202 6.91022 0.067998 6.80221C0.113576 6.6942 0.180805 6.59668 0.265536 6.51566C0.346556 6.43093 0.444081 6.3637 0.552092 6.31812C0.660103 6.27254 0.776308 6.24958 0.893536 6.25066H39.2865V0.893659C39.2819 0.775145 39.3018 0.656951 39.3451 0.546507C39.3883 0.436062 39.4539 0.335755 39.5378 0.251888C39.6216 0.168022 39.7219 0.102409 39.8324 0.0591743C39.9428 0.0159394 40.061 -0.00398304 40.1795 0.000658968C40.4286 0.0111251 40.6658 0.110046 40.8485 0.279659L49.7485 9.17966C49.8321 9.26381 49.8976 9.36418 49.941 9.47459C49.9843 9.585 50.0046 9.70312 50.0005 9.82166Z" fill="black"/>
</svg>
