<svg width="28" height="26" viewBox="0 0 28 26" fill="none" xmlns="http://www.w3.org/2000/svg">
<path opacity="0.2" fill-rule="evenodd" clip-rule="evenodd" d="M13.8079 0.000488281C10.169 0.000488281 9.71348 0.0164445 8.28459 0.0802697C7.17481 0.102237 6.07619 0.306544 5.0327 0.685014C4.14289 1.00785 3.33308 1.5186 2.6584 2.18251C1.98012 2.82694 1.45244 3.61314 1.11303 4.48501C0.72433 5.49282 0.513503 6.56045 0.489938 7.64037C0.425315 9.02697 0.410156 9.46896 0.410156 12.9993C0.410156 16.5296 0.425315 16.9716 0.489938 18.3582C0.513197 19.4382 0.724034 20.5058 1.11303 21.5136C1.45236 22.3857 1.98004 23.1722 2.6584 23.8169C3.33298 24.4813 4.14278 24.9926 5.0327 25.316C6.07627 25.6941 7.17484 25.8984 8.28459 25.9207C9.71348 25.9829 10.1698 26.0005 13.8079 26.0005C17.4459 26.0005 17.9023 25.9845 19.3311 25.9207C20.4409 25.8987 21.5395 25.6944 22.583 25.316C23.473 24.9926 24.2828 24.4813 24.9573 23.8169C25.6357 23.1722 26.1634 22.3857 26.5027 21.5136C26.8914 20.5058 27.1022 19.4381 27.1258 18.3582C27.1904 16.9716 27.2056 16.5288 27.2056 12.9993C27.2056 9.46976 27.1896 9.02697 27.1258 7.64037C27.1025 6.56042 26.8917 5.49273 26.5027 4.48501C26.1634 3.61285 25.6357 2.82637 24.9573 2.18172C24.2828 1.51723 23.473 1.00592 22.583 0.68262C21.5396 0.305374 20.4413 0.101888 19.3319 0.0802697C17.9023 0.0164445 17.4467 0.000488281 13.8079 0.000488281ZM13.8079 2.34287C17.3853 2.34287 17.8081 2.35564 19.2202 2.41867C20.069 2.42833 20.9103 2.57933 21.7094 2.86544C22.2881 3.07309 22.8143 3.40506 23.2508 3.83798C23.6931 4.25457 24.0356 4.76565 24.2529 5.33309C24.5471 6.10422 24.7032 6.92117 24.714 7.74648C24.7786 9.11792 24.7938 9.5272 24.7938 13.0001C24.7938 16.473 24.7802 16.8815 24.714 18.2521C24.7023 19.0778 24.5462 19.8952 24.2529 20.6671C24.0361 21.2348 23.6935 21.746 23.2508 22.1622C22.8156 22.5963 22.2902 22.9291 21.7118 23.1371C20.9132 23.4232 20.0725 23.5742 19.2242 23.5839C17.8121 23.6461 17.3893 23.6597 13.8095 23.6597C10.2297 23.6597 9.80682 23.6469 8.39708 23.5839C7.54758 23.5736 6.70566 23.4226 5.90551 23.1371C5.32651 22.9306 4.8004 22.5985 4.36493 22.1646C3.92115 21.7469 3.57822 21.2337 3.36207 20.6639C3.06693 19.893 2.9108 19.0759 2.90094 18.2505C2.83631 16.8791 2.82115 16.4698 2.82115 12.9969C2.82115 9.52401 2.83472 9.11553 2.90094 7.74488C2.91208 6.92013 3.06816 6.10377 3.36207 5.33309C3.58019 4.76591 3.92291 4.25497 4.36493 3.83798C4.80079 3.40459 5.32679 3.07254 5.90551 2.86544C6.70389 2.57847 7.54475 2.42745 8.3931 2.41867C9.80682 2.35644 10.2281 2.34287 13.8079 2.34287ZM13.8079 17.3322C12.9567 17.306 12.132 17.0297 11.4369 16.5377C10.7418 16.0457 10.2071 15.3599 9.89938 14.5658C9.59169 13.7718 9.52473 12.9047 9.70685 12.0728C9.88898 11.2409 10.3121 10.4811 10.9234 9.88818C11.5348 9.2953 12.3072 8.89564 13.1443 8.73909C13.9813 8.58253 14.846 8.67603 15.6303 9.00789C16.4145 9.33976 17.0837 9.8953 17.5541 10.6051C18.0246 11.315 18.2755 12.1477 18.2756 12.9993C18.2669 13.5772 18.1444 14.1477 17.9151 14.6782C17.6858 15.2088 17.3543 15.689 16.9394 16.0913C16.5245 16.4937 16.0344 16.8104 15.4971 17.0233C14.9598 17.2362 14.3858 17.3412 13.8079 17.3322ZM13.8079 6.32238C12.0106 6.29615 10.2765 6.98451 8.98651 8.23619C7.69653 9.48787 6.95624 11.2005 6.92831 12.9977C6.95624 14.7949 7.69653 16.5075 8.98651 17.7592C10.2765 19.0109 12.0106 19.6992 13.8079 19.673C15.6051 19.6992 17.3392 19.0109 18.6292 17.7592C19.9192 16.5075 20.6595 14.7949 20.6874 12.9977C20.6595 11.2005 19.9192 9.48787 18.6292 8.23619C17.3392 6.98451 15.6051 6.29615 13.8079 6.32238ZM22.5671 6.0591C22.5768 6.37914 22.4907 6.69478 22.3199 6.96563C22.1492 7.23647 21.9014 7.45017 21.6085 7.57938C21.3155 7.70859 20.9907 7.74742 20.6755 7.6909C20.3603 7.63438 20.0692 7.48509 19.8394 7.26213C19.6096 7.03917 19.4516 6.7527 19.3856 6.43939C19.3196 6.12608 19.3486 5.8002 19.4689 5.50347C19.5892 5.20675 19.7953 4.95267 20.0608 4.77379C20.3264 4.59491 20.6393 4.49936 20.9595 4.49937C21.1678 4.49631 21.3747 4.53438 21.5683 4.61139C21.762 4.6884 21.9385 4.80284 22.0878 4.94816C22.2371 5.09349 22.3563 5.26684 22.4386 5.45829C22.5208 5.64974 22.5645 5.85553 22.5671 6.06388" fill="black"/>
</svg>
