<svg width="27" height="26" viewBox="0 0 27 26" fill="none" xmlns="http://www.w3.org/2000/svg">
<path opacity="0.2" fill-rule="evenodd" clip-rule="evenodd" d="M13.4062 0.000499771C10.3778 0.000543363 7.44456 1.05824 5.11307 2.99088C2.78157 4.92353 1.19826 7.60976 0.636607 10.5856C0.0749573 13.5614 0.570244 16.6399 2.03692 19.2894C3.50359 21.939 5.84954 23.993 8.66956 25.0969C8.49788 23.8593 8.51348 22.6029 8.71581 21.3699C8.95508 20.3563 10.2407 14.9098 10.2407 14.9098C9.97613 14.3012 9.84348 13.6434 9.85152 12.9798C9.85152 11.1717 10.8987 9.82467 12.2035 9.82467C12.4364 9.82136 12.6674 9.86795 12.8808 9.96133C13.0942 10.0547 13.2852 10.1927 13.4408 10.366C13.5964 10.5394 13.7132 10.744 13.7831 10.9662C13.8531 11.1884 13.8747 11.423 13.8464 11.6542C13.8464 12.7708 13.1366 14.4353 12.7705 15.9817C12.698 16.268 12.6936 16.5674 12.7579 16.8556C12.8222 17.1439 12.9532 17.4131 13.1406 17.6414C13.3279 17.8698 13.5662 18.051 13.8363 18.1704C14.1065 18.2898 14.4009 18.3441 14.6958 18.3289C17.0087 18.3289 18.78 15.8932 18.78 12.3784C18.8031 11.6658 18.6774 10.9562 18.4109 10.2949C18.1443 9.63361 17.7429 9.03513 17.2321 8.53766C16.7214 8.04019 16.1125 7.65465 15.4445 7.40565C14.7764 7.15665 14.0637 7.04965 13.3519 7.09148C12.5918 7.05868 11.833 7.18043 11.1212 7.44935C10.4095 7.71827 9.75975 8.12877 9.21124 8.65603C8.66273 9.18329 8.22689 9.81634 7.93008 10.5169C7.63326 11.2174 7.48165 11.9709 7.4844 12.7317C7.48634 13.7968 7.82464 14.834 8.45103 15.6954C8.49697 15.7444 8.52949 15.8044 8.54542 15.8697C8.56135 15.9349 8.56015 16.0032 8.54195 16.0679C8.44305 16.4786 8.22293 17.3607 8.18066 17.5433C8.12324 17.7826 7.99244 17.8312 7.7468 17.7164C6.1222 16.9619 5.10851 14.5876 5.10851 12.6815C5.10851 8.5813 8.08575 4.81768 13.6957 4.81768C18.2042 4.81768 21.7078 8.03019 21.7078 12.3234C21.7078 16.8032 18.8837 20.4065 14.963 20.4065C14.3813 20.427 13.8038 20.3009 13.2836 20.0399C12.7633 19.7789 12.3171 19.3913 11.9858 18.9127C11.9858 18.9127 11.3366 21.3971 11.177 22.0056C10.7891 23.2071 10.2459 24.3527 9.56121 25.4135C11.3497 25.97 13.2373 26.1334 15.0948 25.8926C16.9523 25.6518 18.7358 25.0124 20.3233 24.0183C21.9108 23.0242 23.2646 21.6987 24.2923 20.1328C25.3199 18.5668 25.997 16.7972 26.2772 14.9452C26.5574 13.0933 26.4341 11.2026 25.9157 9.40273C25.3973 7.60284 24.4961 5.93621 23.2738 4.51696C22.0515 3.09772 20.537 1.95936 18.8338 1.17983C17.1307 0.4003 15.2792 -0.00199038 13.4062 0.000499771Z" fill="black"/>
</svg>
