<svg width="50" height="43" viewBox="0 0 50 43" fill="none" xmlns="http://www.w3.org/2000/svg">
<path opacity="0.6" d="M49.9813 11.9224L46.4123 1.21641C46.2883 0.846993 46.0468 0.528324 45.7246 0.309103C45.4025 0.0898809 45.0174 -0.0178366 44.6283 0.00241102H5.37228C4.98314 -0.0178366 4.59807 0.0898809 4.27592 0.309103C3.95377 0.528324 3.71225 0.846993 3.58828 1.21641L0.0192754 11.9224C-0.00642512 12.1119 -0.00642512 12.3039 0.0192754 12.4934V23.2024C0.0192754 23.6756 0.207232 24.1293 0.541797 24.4639C0.876362 24.7985 1.33013 24.9864 1.80328 24.9864H3.58828V42.8274H7.15628V24.9844H17.8623V42.8274H46.4123V24.9844H48.1963C48.6692 24.9847 49.123 24.7971 49.4577 24.4629C49.7924 24.1288 49.9807 23.6754 49.9813 23.2024V12.4934C50.007 12.3039 50.007 12.1119 49.9813 11.9224ZM42.8433 39.2584H21.4313V24.9844H42.8433V39.2584ZM46.4123 21.4154H39.2753V14.2784H35.7063V21.4154H26.7843V14.2784H23.2163V21.4154H14.2943V14.2784H10.7253V21.4154H3.58828V12.7794L6.65728 3.57241H43.3433L46.4123 12.7794V21.4154Z" fill="black"/>
</svg>
