<svg width="22" height="24" viewBox="0 0 22 24" fill="none" xmlns="http://www.w3.org/2000/svg">
<g opacity="0.9">
<path d="M2.67068 8.54848C2.69262 8.27513 2.81672 8.02006 3.01826 7.83408C3.2198 7.64811 3.484 7.54487 3.75824 7.54492H18.9251C19.1994 7.54487 19.4635 7.64811 19.6651 7.83408C19.8666 8.02006 19.9907 8.27513 20.0127 8.54848L20.9693 20.4603C20.9934 20.7605 20.9551 21.0624 20.8568 21.3471C20.7585 21.6317 20.6023 21.893 20.3981 22.1143C20.1938 22.3356 19.946 22.5123 19.6702 22.6331C19.3943 22.754 19.0965 22.8164 18.7953 22.8165H3.88804C3.58689 22.8164 3.28902 22.754 3.01318 22.6331C2.73734 22.5123 2.48951 22.3356 2.28529 22.1143C2.08107 21.893 1.92488 21.6317 1.82657 21.3471C1.72825 21.0624 1.68993 20.7605 1.71402 20.4603L2.66959 8.54848H2.67068Z" stroke="black" stroke-width="2" stroke-linecap="round" stroke-linejoin="round"/>
<path d="M15.7051 10.8175V5.36331C15.7051 4.20609 15.2454 3.09626 14.4272 2.27798C13.6089 1.4597 12.4991 1 11.3418 1C10.1846 1 9.07478 1.4597 8.2565 2.27798C7.43822 3.09626 6.97852 4.20609 6.97852 5.36331V10.8175" stroke="black" stroke-width="2" stroke-linecap="round" stroke-linejoin="round"/>
</g>
</svg>
