<svg width="27" height="26" viewBox="0 0 27 26" fill="none" xmlns="http://www.w3.org/2000/svg">
<path opacity="0.2" fill-rule="evenodd" clip-rule="evenodd" d="M18.5614 25.9984V15.9311H21.9999L22.5145 12.0076H18.5606V9.5025C18.5606 8.36645 18.8797 7.58781 20.5407 7.58781H22.6541V4.07755C21.6304 3.96928 20.6016 3.91602 19.5722 3.91799C16.5255 3.91799 14.44 5.74732 14.44 9.10361V12.0068H10.9904V15.9303H14.4384V25.9984H1.87011C1.67999 26 1.49141 25.9642 1.31513 25.893C1.13885 25.8218 0.978338 25.7165 0.842757 25.5832C0.707176 25.45 0.599186 25.2913 0.524959 25.1162C0.450731 24.9412 0.411721 24.7532 0.410156 24.5631V1.43607C0.411617 1.24589 0.45055 1.05786 0.524731 0.882732C0.598912 0.707605 0.706885 0.548818 0.842476 0.415449C0.978068 0.282081 1.13862 0.176747 1.31495 0.105471C1.49128 0.0341943 1.67992 -0.00162646 1.87011 5.66762e-05H25.4008C25.591 -0.00162646 25.7797 0.0341943 25.956 0.105471C26.1323 0.176747 26.2929 0.282081 26.4285 0.415449C26.5641 0.548818 26.672 0.707605 26.7462 0.882732C26.8204 1.05786 26.8593 1.24589 26.8608 1.43607V24.5639C26.8593 24.7541 26.8204 24.9421 26.7462 25.1173C26.672 25.2924 26.5641 25.4512 26.4285 25.5846C26.2929 25.7179 26.1323 25.8233 25.956 25.8945C25.7797 25.9658 25.591 26.0016 25.4008 25.9999L18.5614 25.9984Z" fill="black"/>
</svg>
