<svg width="51" height="44" viewBox="0 0 51 44" fill="none" xmlns="http://www.w3.org/2000/svg">
<path opacity="0.6" d="M30.2079 37.8954V14.5894H19.7919V37.8954C19.7794 38.1363 19.8263 38.3766 19.9285 38.5951C20.0306 38.8136 20.185 39.0036 20.3779 39.1484C20.8159 39.4559 21.3432 39.6102 21.8779 39.5874H28.1279C28.6626 39.6102 29.1899 39.4559 29.6279 39.1484C29.8197 39.0029 29.9729 38.8126 30.0741 38.5942C30.1752 38.3757 30.2212 38.1358 30.2079 37.8954ZM15.3659 10.4224H21.7129L17.6129 5.18239C17.3411 4.85301 16.9972 4.59059 16.6077 4.41544C16.2182 4.2403 15.7937 4.15714 15.3669 4.17239C14.9559 4.17041 14.5486 4.24988 14.1685 4.40621C13.7884 4.56254 13.4431 4.79263 13.1524 5.0832C12.8618 5.37376 12.6316 5.71904 12.4751 6.09909C12.3187 6.47913 12.2391 6.88641 12.2409 7.29739C12.2391 7.70829 12.3186 8.11549 12.475 8.49547C12.6314 8.87545 12.8615 9.22068 13.1521 9.51123C13.4426 9.80179 13.7879 10.0319 14.1678 10.1883C14.5478 10.3447 14.955 10.4242 15.3659 10.4224ZM37.7659 7.29739C37.7678 6.88649 37.6882 6.4793 37.5318 6.09932C37.3754 5.71934 37.1453 5.37411 36.8548 5.08355C36.5642 4.793 36.219 4.56288 35.839 4.4065C35.459 4.25011 35.0518 4.17054 34.6409 4.17239C34.2142 4.15714 33.7896 4.2403 33.4001 4.41544C33.0107 4.59059 32.6667 4.85301 32.3949 5.18239L28.3259 10.4224H34.6409C35.0514 10.4236 35.4581 10.3435 35.8375 10.1868C36.2169 10.0302 36.5615 9.79994 36.8515 9.50945C37.1415 9.21897 37.3712 8.87396 37.5273 8.49431C37.6834 8.11466 37.7628 7.70787 37.7609 7.29739H37.7659ZM50.0009 15.6314V26.0474C50.0069 26.1858 49.984 26.324 49.9337 26.4531C49.8835 26.5822 49.8069 26.6995 49.709 26.7974C49.611 26.8954 49.4937 26.9719 49.3646 27.0222C49.2355 27.0725 49.0973 27.0953 48.9589 27.0894H45.8339V40.6304C45.8358 41.0413 45.7562 41.4485 45.5998 41.8285C45.4434 42.2084 45.2133 42.5537 44.9228 42.8442C44.6322 43.1348 44.287 43.3649 43.907 43.5213C43.527 43.6777 43.1198 43.7572 42.7089 43.7554H7.29192C6.88102 43.7572 6.47383 43.6777 6.09385 43.5213C5.71387 43.3649 5.36863 43.1348 5.07808 42.8442C4.78753 42.5537 4.55741 42.2084 4.40102 41.8285C4.24463 41.4485 4.16507 41.0413 4.16692 40.6304V27.0894H1.04292C0.904498 27.0953 0.76635 27.0725 0.637237 27.0222C0.508124 26.9719 0.390864 26.8954 0.292893 26.7974C0.194923 26.6995 0.11838 26.5822 0.0681188 26.4531C0.0178576 26.324 -0.00502521 26.1858 0.000921608 26.0474V15.6314C-0.00502521 15.493 0.0178576 15.3548 0.0681188 15.2257C0.11838 15.0966 0.194923 14.9793 0.292893 14.8814C0.390864 14.7834 0.508124 14.7069 0.637237 14.6566C0.76635 14.6063 0.904498 14.5834 1.04292 14.5894H15.3659C14.4058 14.6054 13.4526 14.4245 12.5651 14.0578C11.6777 13.6911 10.8747 13.1464 10.2059 12.4574C9.51689 11.7886 8.97223 10.9857 8.60555 10.0982C8.23886 9.21071 8.05793 8.25751 8.07392 7.29739C8.05793 6.33728 8.23886 5.38408 8.60555 4.4966C8.97223 3.60913 9.51689 2.80621 10.2059 2.13739C10.8748 1.44855 11.6778 0.90407 12.5652 0.537558C13.4527 0.171046 14.4059 -0.00972662 15.3659 0.0063932C16.411 -0.0395053 17.452 0.163906 18.403 0.599825C19.354 1.03574 20.1875 1.69166 20.8349 2.51339L25.0009 7.88439L29.1659 2.51339C29.8134 1.69152 30.6472 1.03552 31.5983 0.599593C32.5494 0.163667 33.5907 -0.0396663 34.6359 0.0063932C35.596 -0.00959727 36.5492 0.171333 37.4367 0.538018C38.3242 0.904704 39.1271 1.44937 39.7959 2.13839C40.4849 2.80721 41.0296 3.61013 41.3963 4.4976C41.763 5.38508 41.9439 6.33828 41.9279 7.29839C41.9439 8.25851 41.763 9.21171 41.3963 10.0992C41.0296 10.9867 40.4849 11.7896 39.7959 12.4584C39.1271 13.1474 38.3242 13.6921 37.4367 14.0588C36.5492 14.4255 35.596 14.6064 34.6359 14.5904H48.9589C49.0973 14.5845 49.2353 14.6073 49.3644 14.6575C49.4934 14.7077 49.6106 14.7842 49.7086 14.882C49.8065 14.9799 49.8831 15.097 49.9334 15.226C49.9837 15.355 50.0067 15.4931 50.0009 15.6314Z" fill="black"/>
</svg>
