<svg width="213" height="48" viewBox="0 0 213 48" fill="none" xmlns="http://www.w3.org/2000/svg">
<g clip-path="url(#clip0_1_1340)">
<path d="M63.0569 29.5557C62.0852 29.9073 61.0583 30.0821 60.025 30.0717C58.3276 30.1072 56.6521 29.683 55.176 28.8442C53.8309 28.0721 52.7269 26.9415 51.9871 25.5784C51.2412 24.2013 50.8563 22.6576 50.8686 21.0915C50.841 19.4287 51.2252 17.7849 51.9871 16.3066C52.6947 14.9343 53.7757 13.79 55.1055 13.0055C56.4845 12.1984 58.0588 11.7859 59.6565 11.8133C60.642 11.8038 61.6232 11.9443 62.5665 12.2299C63.3965 12.4822 64.192 12.8364 64.9349 13.2843L63.8036 15.9604C62.6347 15.0809 61.2184 14.592 59.7558 14.5631C58.7177 14.56 57.7002 14.8535 56.8233 15.4092C55.9104 15.976 55.1614 16.7715 54.6504 17.7167C54.1074 18.6969 53.828 19.8012 53.8395 20.9217C53.8202 22.0663 54.0774 23.1988 54.5895 24.2227C55.0678 25.1722 55.8101 25.9635 56.7272 26.5014C57.7007 27.062 58.8089 27.3457 59.9321 27.3219C60.7296 27.3293 61.522 27.1936 62.2717 26.9213C62.9109 26.6898 63.5051 26.3493 64.028 25.9149L65.2298 28.4788C64.5553 28.9306 63.8248 29.2926 63.0569 29.5557Z" fill="black"/>
<path d="M79.4402 19.4922V29.8761H76.9596L76.7898 28.0108C76.4274 28.7125 75.8712 29.2954 75.1873 29.6902C74.4585 30.1194 73.6262 30.341 72.7804 30.3312C71.9082 30.3598 71.059 30.0483 70.412 29.4627C70.1033 29.1771 69.8581 28.8298 69.6925 28.4433C69.5268 28.0568 69.4444 27.6397 69.4505 27.2192V19.4922H72.2003V26.2225C72.2473 27.3656 72.8114 27.9457 73.8925 27.9628C74.2914 27.9604 74.6833 27.8583 75.0326 27.6657C75.3819 27.4732 75.6775 27.1963 75.8924 26.8603C76.4485 26.0443 76.7282 25.0715 76.6904 24.0848V19.4922H79.4402Z" fill="black"/>
<path d="M85.0711 29.668C84.4025 29.4058 83.8052 28.9896 83.3276 28.4533L84.4814 26.9053C85.3467 27.76 86.2302 28.1873 87.1319 28.1873C87.5547 28.2039 87.9743 28.1065 88.3465 27.9053C88.4967 27.8223 88.6208 27.6993 88.7051 27.5499C88.7895 27.4005 88.8306 27.2306 88.8241 27.0592C88.8326 26.8807 88.7912 26.7035 88.7046 26.5472C88.618 26.391 88.4896 26.2619 88.3337 26.1746C87.9902 25.9715 87.6232 25.8112 87.2408 25.6971C86.8402 25.5721 86.5838 25.4984 86.4684 25.4631C85.6938 25.2624 84.9944 24.8403 84.4558 24.2485C84.0156 23.7228 83.7801 23.0559 83.7924 22.3704C83.7875 21.7853 83.9472 21.2107 84.2532 20.712C84.5592 20.2134 84.9992 19.8107 85.523 19.5501C86.1811 19.2192 86.9116 19.0583 87.6479 19.0821C88.3401 19.0695 89.0303 19.1602 89.6958 19.3514C90.282 19.5325 90.8312 19.8169 91.3175 20.191L90.2631 21.8352C89.9519 21.5493 89.5899 21.3243 89.1958 21.1717C88.8335 21.0218 88.4469 20.9392 88.0549 20.9282C87.6802 20.914 87.3105 21.0171 86.9973 21.223C86.8696 21.314 86.7655 21.4342 86.6937 21.5736C86.6219 21.713 86.5844 21.8675 86.5844 22.0243C86.5844 22.181 86.6219 22.3355 86.6937 22.4749C86.7655 22.6143 86.8696 22.7345 86.9973 22.8255C87.4478 23.0799 87.9264 23.281 88.4234 23.4248C88.6991 23.5081 88.8785 23.5658 88.9619 23.5979C89.6829 23.7986 90.3434 24.174 90.8848 24.6907C91.1168 24.9331 91.2974 25.2199 91.4158 25.5338C91.5343 25.8477 91.588 26.1823 91.5739 26.5175C91.5843 26.9947 91.4921 27.4686 91.3036 27.907C91.115 28.3455 90.8345 28.7384 90.481 29.059C89.7524 29.7385 88.7098 30.0771 87.353 30.075C86.5732 30.0878 85.7984 29.9496 85.0711 29.668Z" fill="black"/>
<path d="M99.3525 14.9285V19.4923H102.051V21.6524H99.3525V29.8762H96.5962V21.6524H94.8047V19.4923H96.5962V14.9285H99.3525Z" fill="black"/>
<path d="M105.615 21.7518C106.107 20.9069 106.824 20.2147 107.685 19.752C108.613 19.2568 109.653 19.0064 110.704 19.0245C111.753 19.0052 112.789 19.2557 113.714 19.752C114.563 20.2085 115.265 20.8979 115.736 21.739C116.203 22.6109 116.448 23.5847 116.448 24.5738C116.448 25.5629 116.203 26.5367 115.736 27.4085C115.262 28.2513 114.562 28.9442 113.714 29.4084C112.784 29.9123 111.739 30.1663 110.682 30.1455C109.645 30.1684 108.617 29.942 107.685 29.4853C106.824 29.0571 106.104 28.3894 105.612 27.5624C105.098 26.6628 104.84 25.6399 104.865 24.6042C104.848 23.6026 105.107 22.6156 105.615 21.7518ZM108.499 26.9406C108.764 27.2474 109.092 27.4926 109.461 27.6587C109.831 27.8248 110.232 27.9079 110.637 27.9021C111.047 27.9132 111.455 27.8339 111.831 27.67C112.207 27.5061 112.542 27.2614 112.813 26.9534C113.387 26.3059 113.69 25.4625 113.659 24.5978C113.688 23.7296 113.386 22.8829 112.813 22.2294C112.545 21.9189 112.211 21.6716 111.836 21.5054C111.461 21.3391 111.054 21.258 110.643 21.2679C110.238 21.2601 109.836 21.3423 109.467 21.5085C109.097 21.6748 108.769 21.921 108.506 22.2294C107.933 22.8733 107.626 23.7106 107.647 24.5722C107.612 25.4426 107.917 26.2924 108.499 26.9406Z" fill="black"/>
<path d="M136.209 19.8865C136.508 20.1783 136.746 20.5272 136.909 20.9125C137.071 21.2978 137.155 21.7118 137.154 22.13V29.8762H134.43V23.2004C134.425 22.7477 134.298 22.3047 134.062 21.9184C133.936 21.7587 133.776 21.6299 133.593 21.5421C133.411 21.4543 133.21 21.4098 133.007 21.4121C132.594 21.4089 132.186 21.5126 131.825 21.713C131.463 21.9135 131.16 22.2039 130.943 22.5562C130.413 23.343 130.13 24.2707 130.132 25.2195V29.8762H127.36V23.2004C127.355 22.7464 127.224 22.3026 126.982 21.9184C126.851 21.7547 126.685 21.623 126.495 21.5336C126.306 21.4442 126.098 21.3993 125.889 21.4025C125.348 21.3977 124.824 21.5903 124.415 21.9441C123.972 22.3297 123.631 22.8184 123.421 23.3671C123.185 23.9538 123.066 24.5807 123.069 25.2131V29.8762H120.319V19.4923H122.799L123.017 21.3095C123.382 20.6053 123.937 20.0178 124.62 19.6141C125.322 19.2143 126.119 19.0106 126.927 19.0244C127.666 18.9985 128.397 19.1914 129.027 19.5789C129.588 19.9403 129.988 20.5038 130.145 21.1525C130.549 20.5039 131.106 19.9646 131.767 19.5821C132.383 19.2142 133.087 19.0183 133.805 19.0148C134.69 18.9753 135.555 19.2889 136.209 19.8865Z" fill="black"/>
<path d="M146.026 30.1935C145.486 31.2248 144.659 32.0775 143.644 32.6485C142.569 33.2391 141.365 33.5592 140.138 33.5811V30.8088C141.202 30.7967 142.219 30.3688 142.971 29.6166C143.666 28.888 144.013 27.7962 144.013 26.3412V12.0056H146.897V26.4277C146.925 27.736 146.625 29.0305 146.026 30.1935Z" fill="#BD0004"/>
<path d="M159.55 26.979L160.803 29.0141C160.242 29.3616 159.641 29.6383 159.012 29.8377C158.419 30.0397 157.798 30.1479 157.172 30.1582C156.093 30.1862 155.025 29.9415 154.066 29.4467C153.219 29.0002 152.519 28.3179 152.051 27.4821C151.571 26.5975 151.331 25.6035 151.352 24.5977C151.344 23.6076 151.616 22.6354 152.137 21.7934C152.662 20.944 153.398 20.2459 154.275 19.7679C155.175 19.2674 156.19 19.009 157.22 19.018C158.504 18.9773 159.756 19.4199 160.729 20.2583C161.663 21.0851 162.285 22.2517 162.595 23.758L154.582 26.4566C154.855 26.8776 155.238 27.2166 155.688 27.4373C156.161 27.6715 156.683 27.7902 157.21 27.7834C158.054 27.7618 158.871 27.4809 159.55 26.979ZM154.877 22.0947C154.312 22.746 154.017 23.5887 154.054 24.4503C154.051 24.5895 154.058 24.7288 154.076 24.8669L159.524 22.944C159.323 22.4558 159.002 22.026 158.592 21.6941C158.131 21.3488 157.565 21.1743 156.989 21.2005C156.593 21.1873 156.199 21.2604 155.835 21.4148C155.47 21.5692 155.143 21.8012 154.877 22.0947Z" fill="#BD0004"/>
<path d="M180.341 19.4922L175.604 30.4882L172.264 23.4695L169.22 30.4882L164.438 19.4922H167.137L169.54 25.0143L171.284 21.0402L170.572 19.4922H172.953L175.408 25.1873L177.652 19.4922H180.341Z" fill="#BD0004"/>
<path d="M190.625 26.979L191.875 29.0141C191.314 29.3616 190.713 29.6383 190.084 29.8378C189.491 30.04 188.87 30.1482 188.244 30.1583C187.166 30.1853 186.098 29.9406 185.138 29.4468C184.292 28.9992 183.594 28.317 183.126 27.4822C182.647 26.5975 182.406 25.6035 182.427 24.5977C182.417 23.6074 182.69 22.6347 183.212 21.7934C183.736 20.9442 184.471 20.246 185.347 19.7679C186.247 19.2678 187.262 19.0094 188.292 19.018C189.581 18.9732 190.84 19.4161 191.817 20.2583C192.751 21.0852 193.372 22.2517 193.68 23.758L185.667 26.4566C185.938 26.8781 186.319 27.2173 186.77 27.4373C187.243 27.6712 187.764 27.7898 188.292 27.7834C189.134 27.7599 189.948 27.4792 190.625 26.979ZM185.949 22.0947C185.384 22.746 185.089 23.5888 185.126 24.4503C185.123 24.5896 185.132 24.7289 185.151 24.8669L190.6 22.944C190.401 22.4545 190.08 22.0241 189.667 21.6941C189.206 21.3483 188.64 21.1738 188.064 21.2005C187.668 21.1872 187.274 21.2603 186.908 21.4147C186.543 21.5691 186.216 21.8012 185.949 22.0947Z" fill="#BD0004"/>
<path d="M200.099 10.73V29.8761H197.349V10.73H200.099Z" fill="#BD0004"/>
<path d="M205.707 29.6679C205.034 29.4079 204.432 28.9916 203.951 28.4533L205.115 26.9213C205.982 27.776 206.866 28.2033 207.765 28.2033C208.189 28.2199 208.609 28.1225 208.983 27.9212C209.133 27.8381 209.256 27.715 209.34 27.5655C209.424 27.4161 209.464 27.2463 209.457 27.0751C209.469 26.8923 209.429 26.7099 209.341 26.5492C209.253 26.3885 209.121 26.2563 208.96 26.1682C208.618 25.9651 208.252 25.8047 207.871 25.6906L207.098 25.4567C206.323 25.2567 205.622 24.8345 205.083 24.242C204.643 23.716 204.409 23.0491 204.422 22.3639C204.421 21.8012 204.569 21.2483 204.852 20.7615C205.158 20.2417 205.608 19.8211 206.147 19.55C206.805 19.2194 207.535 19.0586 208.271 19.0821C208.964 19.0694 209.654 19.1602 210.319 19.3513C210.912 19.5364 211.465 19.8274 211.954 20.2102L210.899 21.8543C210.587 21.5691 210.224 21.3442 209.829 21.1909C209.467 21.041 209.08 20.9584 208.688 20.9474C208.314 20.933 207.946 21.0361 207.634 21.2422C207.506 21.3332 207.402 21.4534 207.33 21.5928C207.258 21.7321 207.221 21.8866 207.221 22.0434C207.221 22.2002 207.258 22.3547 207.33 22.4941C207.402 22.6335 207.506 22.7537 207.634 22.8447C208.083 23.0986 208.561 23.2997 209.057 23.444C209.336 23.5273 209.516 23.585 209.595 23.617C210.316 23.8175 210.977 24.1929 211.518 24.7099C211.75 24.9525 211.93 25.2393 212.048 25.5532C212.165 25.8672 212.219 26.2017 212.204 26.5367C212.215 27.014 212.123 27.488 211.934 27.9266C211.746 28.3651 211.465 28.7579 211.111 29.0782C210.382 29.7577 209.34 30.0963 207.983 30.0942C207.204 30.1002 206.431 29.9554 205.707 29.6679Z" fill="#BD0004"/>
<path d="M21.0177 5.05735C20.5175 5.05799 20.0283 4.91022 19.612 4.63275C19.1957 4.35528 18.8711 3.96058 18.6792 3.49858C18.4874 3.03658 18.4368 2.52805 18.534 2.03732C18.6312 1.5466 18.8718 1.09573 19.2253 0.741768C19.5789 0.387805 20.0294 0.146654 20.52 0.0488239C21.0106 -0.0490057 21.5192 0.000883083 21.9815 0.192178C22.4437 0.383473 22.8388 0.707578 23.1168 1.12349C23.3948 1.53939 23.5432 2.02841 23.5432 2.52868C23.5432 3.19877 23.2772 3.84146 22.8037 4.31559C22.3302 4.78972 21.6878 5.0565 21.0177 5.05735Z" fill="#BD0004"/>
<path d="M27.5975 6.23997C27.0973 6.23997 26.6082 6.09159 26.1923 5.81359C25.7764 5.53559 25.4523 5.14048 25.261 4.67824C25.0697 4.21599 25.0198 3.7074 25.1177 3.2168C25.2155 2.72619 25.4567 2.27563 25.8106 1.92212C26.1646 1.5686 26.6154 1.32802 27.1062 1.23082C27.5969 1.13361 28.1054 1.18414 28.5674 1.37602C29.0294 1.5679 29.4241 1.89251 29.7016 2.30877C29.9791 2.72503 30.1268 3.21424 30.1262 3.7145C30.1262 4.04642 30.0608 4.37508 29.9337 4.6817C29.8065 4.98831 29.6202 5.26686 29.3854 5.50141C29.1505 5.73597 28.8717 5.92192 28.565 6.04865C28.2582 6.17538 27.9294 6.24039 27.5975 6.23997Z" fill="#BD0004"/>
<path d="M33.4914 9.15316C33.1065 9.15314 32.7302 9.03873 32.4104 8.82446C32.0906 8.61019 31.8417 8.30572 31.6953 7.94971C31.5489 7.5937 31.5116 7.20221 31.5881 6.82495C31.6646 6.44769 31.8515 6.10167 32.125 5.83084C32.3986 5.56 32.7464 5.37656 33.1244 5.3038C33.5024 5.23105 33.8935 5.27227 34.2481 5.42222C34.6026 5.57217 34.9046 5.82409 35.1157 6.146C35.3267 6.46791 35.4374 6.84528 35.4336 7.23021C35.4293 7.74223 35.2228 8.23179 34.8589 8.59205C34.495 8.95231 34.0034 9.15402 33.4914 9.15316Z" fill="black"/>
<path d="M37.8373 14.4222C37.4405 14.4222 37.0526 14.3046 36.7227 14.0841C36.3928 13.8637 36.1356 13.5503 35.9838 13.1837C35.8319 12.8171 35.7922 12.4137 35.8696 12.0245C35.947 11.6354 36.1381 11.2779 36.4187 10.9973C36.6993 10.7167 37.0567 10.5256 37.4459 10.4482C37.8351 10.3708 38.2385 10.4105 38.6051 10.5624C38.9717 10.7142 39.285 10.9714 39.5055 11.3013C39.7259 11.6312 39.8436 12.0191 39.8436 12.4159C39.8436 12.948 39.6322 13.4583 39.256 13.8346C38.8797 14.2108 38.3694 14.4222 37.8373 14.4222Z" fill="black"/>
<path d="M40.1095 20.6684C39.7291 20.6684 39.3574 20.5556 39.0411 20.3443C38.7249 20.133 38.4784 19.8327 38.3329 19.4813C38.1874 19.13 38.1493 18.7433 38.2235 18.3703C38.2977 17.9973 38.4808 17.6547 38.7497 17.3857C39.0187 17.1168 39.3613 16.9337 39.7343 16.8595C40.1073 16.7853 40.494 16.8233 40.8454 16.9689C41.1967 17.1144 41.4971 17.3609 41.7083 17.6771C41.9196 17.9934 42.0324 18.3651 42.0324 18.7455C42.0324 19.2555 41.8298 19.7446 41.4692 20.1052C41.1086 20.4658 40.6195 20.6684 40.1095 20.6684Z" fill="black"/>
<path d="M40.0521 27.107C40.9866 27.107 41.7443 26.3494 41.7443 25.4149C41.7443 24.4803 40.9866 23.7227 40.0521 23.7227C39.1175 23.7227 38.3599 24.4803 38.3599 25.4149C38.3599 26.3494 39.1175 27.107 40.0521 27.107Z" fill="black"/>
<path d="M37.5169 32.9112C37.2329 32.9112 36.9553 32.8269 36.7192 32.6692C36.4831 32.5114 36.299 32.2872 36.1903 32.0248C36.0817 31.7625 36.0532 31.4738 36.1086 31.1952C36.164 30.9167 36.3008 30.6609 36.5016 30.4601C36.7024 30.2593 36.9582 30.1225 37.2367 30.0671C37.5153 30.0117 37.804 30.0402 38.0663 30.1488C38.3287 30.2575 38.5529 30.4415 38.7107 30.6777C38.8684 30.9138 38.9527 31.1914 38.9527 31.4754C38.9527 31.8562 38.8014 32.2214 38.5321 32.4906C38.2629 32.7599 37.8977 32.9112 37.5169 32.9112Z" fill="black"/>
<path d="M33.5585 37.3918C33.3372 37.3918 33.121 37.3262 32.937 37.2033C32.7531 37.0804 32.6097 36.9057 32.5251 36.7013C32.4404 36.497 32.4183 36.2721 32.4614 36.0551C32.5046 35.8381 32.6111 35.6388 32.7675 35.4824C32.924 35.326 33.1233 35.2194 33.3402 35.1763C33.5572 35.1331 33.7821 35.1553 33.9865 35.2399C34.1909 35.3246 34.3656 35.4679 34.4885 35.6519C34.6114 35.8358 34.677 36.0521 34.677 36.2733C34.677 36.57 34.5591 36.8544 34.3494 37.0642C34.1396 37.274 33.8551 37.3918 33.5585 37.3918Z" fill="black"/>
<path d="M29.2642 40.26C29.0963 40.2575 28.9331 40.2053 28.7949 40.11C28.6567 40.0147 28.5499 39.8806 28.4879 39.7247C28.4258 39.5687 28.4114 39.3979 28.4464 39.2338C28.4814 39.0696 28.5642 38.9195 28.6845 38.8024C28.8047 38.6853 28.9569 38.6065 29.1219 38.5758C29.2869 38.5452 29.4573 38.5641 29.6116 38.6302C29.7659 38.6963 29.8971 38.8066 29.9887 38.9473C30.0803 39.0879 30.1282 39.2525 30.1263 39.4203C30.1255 39.5323 30.1024 39.6429 30.0585 39.7459C30.0146 39.8489 29.9507 39.9421 29.8706 40.0202C29.7904 40.0983 29.6955 40.1597 29.5914 40.2009C29.4873 40.242 29.3761 40.2622 29.2642 40.26Z" fill="black"/>
<path d="M14.4383 6.23997C14.9386 6.23997 15.4276 6.09159 15.8435 5.81359C16.2594 5.53559 16.5836 5.14048 16.7748 4.67824C16.9661 4.21599 17.016 3.7074 16.9182 3.2168C16.8204 2.72619 16.5792 2.27563 16.2253 1.92212C15.8713 1.5686 15.4204 1.32802 14.9297 1.23082C14.439 1.13361 13.9304 1.18414 13.4684 1.37602C13.0064 1.5679 12.6117 1.89251 12.3343 2.30877C12.0568 2.72503 11.909 3.21424 11.9097 3.7145C11.9097 4.04642 11.9751 4.37508 12.1022 4.6817C12.2293 4.98831 12.4156 5.26686 12.6505 5.50141C12.8853 5.73597 13.1641 5.92192 13.4709 6.04865C13.7777 6.17538 14.1064 6.24039 14.4383 6.23997Z" fill="#BD0004"/>
<path d="M8.5413 9.15633C9.61393 9.15633 10.4835 8.28679 10.4835 7.21415C10.4835 6.14152 9.61393 5.27197 8.5413 5.27197C7.46866 5.27197 6.59912 6.14152 6.59912 7.21415C6.59912 8.28679 7.46866 9.15633 8.5413 9.15633Z" fill="black"/>
<path d="M4.19866 14.4222C4.59547 14.4222 4.98336 14.3046 5.31329 14.0841C5.64322 13.8637 5.90037 13.5503 6.05222 13.1837C6.20407 12.8171 6.2438 12.4137 6.16639 12.0245C6.08897 11.6354 5.8979 11.2779 5.61731 10.9973C5.33673 10.7167 4.97925 10.5256 4.59007 10.4482C4.20089 10.3708 3.79749 10.4105 3.43089 10.5624C3.06429 10.7142 2.75096 10.9714 2.5305 11.3013C2.31005 11.6312 2.19239 12.0191 2.19239 12.4159C2.19196 12.6795 2.24357 12.9406 2.34424 13.1842C2.44492 13.4278 2.59268 13.6492 2.77907 13.8355C2.96545 14.0219 3.18679 14.1697 3.43039 14.2704C3.674 14.371 3.93508 14.4226 4.19866 14.4222Z" fill="black"/>
<path d="M1.92295 20.6684C2.30327 20.6684 2.67505 20.5556 2.99128 20.3443C3.30751 20.133 3.55398 19.8327 3.69952 19.4813C3.84506 19.13 3.88315 18.7433 3.80895 18.3703C3.73475 17.9973 3.55161 17.6547 3.28268 17.3857C3.01375 17.1168 2.67111 16.9337 2.2981 16.8595C1.92508 16.7853 1.53844 16.8233 1.18707 16.9689C0.835695 17.1144 0.535372 17.3609 0.324075 17.6771C0.112779 17.9934 0 18.3651 0 18.7455C0 19.2555 0.202596 19.7446 0.563219 20.1052C0.923841 20.4658 1.41295 20.6684 1.92295 20.6684Z" fill="black"/>
<path d="M1.9837 27.107C2.91827 27.107 3.67589 26.3494 3.67589 25.4149C3.67589 24.4803 2.91827 23.7227 1.9837 23.7227C1.04913 23.7227 0.291504 24.4803 0.291504 25.4149C0.291504 26.3494 1.04913 27.107 1.9837 27.107Z" fill="black"/>
<path d="M4.5156 32.9112C4.79971 32.9118 5.07763 32.8281 5.31416 32.6707C5.5507 32.5134 5.73523 32.2893 5.84439 32.027C5.95356 31.7647 5.98245 31.4759 5.92741 31.1972C5.87237 30.9185 5.73588 30.6623 5.53521 30.4612C5.33454 30.2601 5.07871 30.123 4.8001 30.0674C4.5215 30.0117 4.23264 30.04 3.97009 30.1485C3.70755 30.2571 3.48312 30.4411 3.32521 30.6773C3.1673 30.9135 3.08301 31.1912 3.08301 31.4753C3.08301 31.8556 3.23384 32.2203 3.50241 32.4895C3.77098 32.7587 4.13536 32.9103 4.5156 32.9112Z" fill="black"/>
<path d="M8.47398 37.3918C9.09172 37.3918 9.5925 36.891 9.5925 36.2733C9.5925 35.6556 9.09172 35.1548 8.47398 35.1548C7.85624 35.1548 7.35547 35.6556 7.35547 36.2733C7.35547 36.891 7.85624 37.3918 8.47398 37.3918Z" fill="black"/>
<path d="M12.7683 40.2601C12.9367 40.2601 13.1013 40.2101 13.2411 40.1163C13.381 40.0225 13.4898 39.8893 13.5538 39.7336C13.6178 39.5778 13.6341 39.4066 13.6005 39.2416C13.567 39.0766 13.4851 38.9253 13.3654 38.8069C13.2456 38.6885 13.0934 38.6084 12.928 38.5767C12.7626 38.545 12.5916 38.5632 12.4366 38.629C12.2816 38.6947 12.1496 38.8051 12.0574 38.946C11.9653 39.0869 11.9171 39.2521 11.919 39.4204C11.9215 39.644 12.0121 39.8576 12.1711 40.0148C12.3301 40.172 12.5447 40.2601 12.7683 40.2601Z" fill="black"/>
<path d="M19.8707 21.3768V19.1077C19.8707 18.1975 19.4477 18.0725 18.999 18.0725H16.419C15.9703 18.0725 15.5473 18.1975 15.5473 19.1077V25.8765C15.5473 26.7867 15.9703 26.9117 16.419 26.9117H19.0054C19.196 26.9191 19.3849 26.8724 19.5502 26.7771C19.6527 27.591 20.069 28.3327 20.7104 28.8443C20.1739 29.0796 19.5907 29.1892 19.0054 29.1648H16.419C14.2557 29.1648 13.1147 28.0142 13.1147 25.8605V19.1077C13.1147 16.9508 14.2557 15.8035 16.419 15.8035H19.0054C20.6078 15.8035 21.6366 16.4156 22.0693 17.6142C22.0866 17.6397 22.0996 17.6679 22.1077 17.6976L22.1462 17.8322C22.2074 18.0421 22.2524 18.2564 22.2808 18.4732C22.3095 18.6856 22.3223 18.8998 22.3193 19.1141V20.2807L19.8707 21.3768Z" fill="#BD0004"/>
<path d="M35.1996 47.1314C31.8761 47.1314 29.9916 44.9457 28.4692 43.1894C27.3251 41.8593 26.3348 40.7023 25.0304 40.7023C24.9275 40.7023 24.8289 40.6615 24.7562 40.5888C24.6834 40.516 24.6426 40.4174 24.6426 40.3146C24.6426 40.2117 24.6834 40.1131 24.7562 40.0403C24.8289 39.9676 24.9275 39.9268 25.0304 39.9268C26.6905 39.9268 27.8411 41.2632 29.0622 42.6766C30.5492 44.3976 32.2318 46.3494 35.1996 46.3494C35.2505 46.3494 35.3009 46.3594 35.348 46.3789C35.395 46.3984 35.4378 46.427 35.4738 46.463C35.5098 46.499 35.5384 46.5417 35.5578 46.5888C35.5773 46.6358 35.5874 46.6863 35.5874 46.7372C35.5874 46.7881 35.5773 46.8386 35.5578 46.8856C35.5384 46.9327 35.5098 46.9754 35.4738 47.0114C35.4378 47.0474 35.395 47.076 35.348 47.0955C35.3009 47.115 35.2505 47.125 35.1996 47.125V47.1314Z" fill="black"/>
<path d="M6.83604 47.1316C6.78511 47.1316 6.73468 47.1216 6.68763 47.1021C6.64059 47.0826 6.59784 47.054 6.56183 47.018C6.52582 46.982 6.49725 46.9392 6.47776 46.8922C6.45827 46.8451 6.44824 46.7947 6.44824 46.7438C6.44824 46.6929 6.45827 46.6424 6.47776 46.5954C6.49725 46.5483 6.52582 46.5056 6.56183 46.4696C6.59784 46.4336 6.64059 46.405 6.68763 46.3855C6.73468 46.366 6.78511 46.356 6.83604 46.356C9.80058 46.356 11.4864 44.4042 12.9702 42.6832C14.1913 41.2698 15.3419 39.9333 17.0052 39.9333C17.1081 39.9333 17.2067 39.9742 17.2794 40.0469C17.3522 40.1197 17.393 40.2183 17.393 40.3211C17.393 40.424 17.3522 40.5226 17.2794 40.5954C17.2067 40.6681 17.1081 40.7089 17.0052 40.7089C15.6976 40.7089 14.7073 41.8595 13.5599 43.1895C12.044 44.9458 10.1563 47.1316 6.83604 47.1316Z" fill="black"/>
<path d="M36.4526 46.7436C36.4532 46.9924 36.38 47.2357 36.2422 47.4428C36.1044 47.6499 35.9082 47.8114 35.6785 47.9069C35.4488 48.0024 35.196 48.0275 34.952 47.9791C34.708 47.9308 34.4838 47.8111 34.3079 47.6352C34.132 47.4593 34.0123 47.2351 33.9639 46.9911C33.9156 46.7471 33.9407 46.4942 34.0362 46.2646C34.1317 46.0349 34.2932 45.8387 34.5003 45.7009C34.7074 45.5631 34.9507 45.4898 35.1995 45.4905C35.5316 45.4913 35.8498 45.6236 36.0846 45.8584C36.3194 46.0933 36.4517 46.4115 36.4526 46.7436Z" fill="black"/>
<path d="M5.57959 46.7436C5.57896 46.9922 5.6521 47.2354 5.78976 47.4424C5.92742 47.6495 6.12341 47.811 6.35292 47.9066C6.58243 48.0022 6.83513 48.0275 7.07905 47.9794C7.32296 47.9313 7.54712 47.8119 7.72314 47.6363C7.89916 47.4607 8.01913 47.2369 8.06787 46.9931C8.1166 46.7493 8.09191 46.4965 7.99692 46.2668C7.90192 46.037 7.7409 45.8406 7.53423 45.7024C7.32756 45.5642 7.08453 45.4905 6.83592 45.4905C6.50353 45.4913 6.18496 45.6235 5.94962 45.8582C5.71429 46.093 5.58128 46.4112 5.57959 46.7436Z" fill="black"/>
<path d="M24.069 38.0232H17.9668C17.4358 38.0232 17.0054 38.4537 17.0054 38.9847V41.6576C17.0054 42.1886 17.4358 42.619 17.9668 42.619H24.069C24.6 42.619 25.0305 42.1886 25.0305 41.6576V38.9847C25.0305 38.4537 24.6 38.0232 24.069 38.0232Z" fill="#BD0004"/>
<path d="M23.8447 15.8066L22.8255 18.0917H26.4663V25.8733C26.4663 26.7835 26.0465 26.9085 25.5946 26.9085H23.1749C22.723 26.9085 22.3063 26.7835 22.3063 25.8733V23.6106L19.8706 24.7067V25.8733C19.8706 28.0334 21.0148 29.1647 23.1749 29.1647H25.5946C27.7579 29.1647 28.9021 28.0206 28.9021 25.8605V15.8066H23.8447Z" fill="#BD0004"/>
</g>
<defs>
<clipPath id="clip0_1_1340">
<rect width="212.197" height="48" fill="white"/>
</clipPath>
</defs>
</svg>
