<svg width="33" height="27" viewBox="0 0 33 27" fill="none" xmlns="http://www.w3.org/2000/svg">
<path opacity="0.2" d="M10.8628 26.9971C22.9264 26.9971 29.5302 16.9916 29.5302 8.32959C29.5302 8.04798 29.5302 7.76717 29.5175 7.48556C30.803 6.55394 31.9122 5.40071 32.7931 4.07995C31.5936 4.60979 30.3223 4.95927 29.0205 5.11703C30.3922 4.29583 31.4193 3.0046 31.9108 1.48325C30.6215 2.24816 29.2101 2.78519 27.7385 3.07078C26.8387 2.11078 25.671 1.44357 24.3872 1.15584C23.1033 0.868101 21.7625 0.973142 20.5391 1.45731C19.3157 1.94148 18.2661 2.7824 17.5269 3.87081C16.7876 4.95922 16.3927 6.24481 16.3936 7.56055C16.3968 8.06382 16.4524 8.56539 16.5595 9.05714C13.9503 8.92576 11.3979 8.24705 9.0681 7.06509C6.73826 5.88312 4.68307 4.22434 3.03599 2.19644C2.19877 3.64236 1.94312 5.35268 2.32093 6.98022C2.69873 8.60776 3.68169 10.0306 5.07027 10.9598C4.02884 10.9261 3.00999 10.6476 2.09623 10.1469V10.2362C2.09803 11.7513 2.62301 13.2193 3.5824 14.3919C4.54178 15.5646 5.8767 16.3699 7.36142 16.6717C6.79918 16.8269 6.21834 16.9045 5.63508 16.9023C5.22204 16.9033 4.80985 16.8649 4.40414 16.7874C4.82223 18.0908 5.63757 19.2308 6.73595 20.0476C7.83433 20.8645 9.16072 21.3173 10.5293 21.3426C8.20605 23.1691 5.33551 24.1602 2.38023 24.1563C1.85873 24.1585 1.3376 24.1284 0.819824 24.0661C3.81993 25.9803 7.30482 26.9967 10.8636 26.9955" fill="black"/>
</svg>
